<?xml version="1.0" standalone="no"?>
<!DOCTYPE svg PUBLIC "-//W3C//DTD SVG 20010904//EN"
 "http://www.w3.org/TR/2001/REC-SVG-20010904/DTD/svg10.dtd">
<svg version="1.0" xmlns="http://www.w3.org/2000/svg"
 width="512.000000pt" height="512.000000pt" viewBox="0 0 512.000000 512.000000"
 preserveAspectRatio="xMidYMid meet">

<g transform="translate(0.000000,512.000000) scale(0.100000,-0.100000)"
fill="#000000" stroke="none">
<path d="M2180 5019 c-79 -79 -75 -78 -190 -45 -71 21 -205 21 -244 1 -17 -9
-54 -42 -83 -75 -41 -45 -85 -77 -189 -137 -149 -85 -173 -110 -200 -200 -20
-68 -42 -94 -124 -148 -81 -52 -123 -105 -141 -178 -23 -97 -52 -117 -168
-117 -36 0 -83 -5 -104 -11 -47 -13 -70 -6 -87 26 -13 25 -55 44 -67 31 -4 -4
1 -31 12 -61 23 -68 18 -81 -68 -176 -54 -61 -66 -70 -92 -67 -27 3 -30 0 -36
-36 -5 -31 -19 -50 -68 -95 -69 -63 -91 -107 -91 -180 0 -64 -15 -97 -51 -112
-36 -14 -87 -71 -106 -117 -17 -41 -11 -142 14 -234 l15 -57 -30 -48 c-51 -79
-64 -122 -65 -203 -1 -116 42 -198 135 -256 l40 -26 -7 -51 c-13 -101 -6 -246
15 -287 17 -33 17 -40 5 -56 -24 -31 -17 -52 20 -70 40 -19 65 -49 65 -78 0
-10 -18 -38 -40 -62 -44 -48 -49 -78 -30 -171 6 -26 14 -87 19 -135 7 -77 13
-94 45 -141 35 -50 36 -55 36 -140 0 -128 19 -156 143 -217 79 -38 89 -54 102
-152 14 -104 113 -191 249 -218 81 -16 91 -22 161 -95 45 -46 75 -67 118 -84
69 -25 167 -28 251 -6 57 15 96 9 96 -15 0 -19 60 -39 188 -64 72 -14 144 -32
161 -40 37 -20 167 -124 206 -166 41 -44 76 -60 129 -60 60 0 96 -15 128 -54
34 -42 125 -67 232 -65 42 1 83 -4 96 -11 29 -15 125 -39 161 -40 57 0 157 39
191 76 27 29 38 34 63 30 139 -25 182 -28 238 -17 72 15 107 45 153 127 42 75
55 84 121 84 67 0 161 26 199 55 18 14 55 59 82 102 40 61 53 91 62 145 13 73
32 98 78 98 54 0 105 40 185 144 25 32 33 36 64 34 34 -3 37 0 67 52 60 107
71 124 98 152 24 26 32 28 103 28 42 0 85 5 96 11 11 5 30 33 43 62 22 50 38
67 169 179 42 36 65 72 83 130 5 14 29 41 54 60 83 61 119 172 97 301 l-8 48
55 55 c69 69 91 122 83 202 -2 33 -13 74 -23 93 -20 38 -22 94 -7 189 22 142
-14 255 -107 329 -30 24 -60 53 -66 65 -6 12 -14 75 -16 141 -5 129 -9 140
-62 204 -47 56 -58 133 -27 186 14 25 21 53 21 91 0 48 -4 58 -35 93 -39 43
-42 60 -24 171 12 77 0 114 -44 143 -18 11 -26 28 -29 60 -6 50 -85 224 -114
248 -10 9 -39 19 -64 23 -55 9 -80 30 -80 70 -1 79 -95 195 -176 215 -24 6
-82 11 -129 11 -86 0 -87 0 -113 32 -73 89 -128 136 -172 149 -49 14 -200 16
-295 5 -48 -6 -72 -3 -119 13 -46 16 -84 21 -168 21 -69 0 -121 5 -141 14 -18
7 -66 50 -106 94 -59 65 -82 84 -122 97 -51 17 -89 54 -89 87 0 29 -28 33 -55
8 -21 -20 -31 -22 -72 -16 -26 4 -97 13 -158 20 -65 8 -129 22 -155 35 -25 11
-62 21 -82 21 -33 0 -46 -8 -108 -71z m372 -329 c49 0 63 -4 83 -25 14 -13 25
-33 25 -43 0 -10 -27 -64 -61 -120 -33 -55 -63 -118 -66 -139 -8 -51 -23 -67
-94 -93 -114 -41 -181 -129 -182 -238 0 -31 3 -68 7 -82 5 -21 -3 -36 -49 -90
-63 -73 -100 -158 -90 -205 19 -88 17 -111 -11 -166 -32 -63 -33 -107 -4 -170
25 -56 25 -95 0 -142 -11 -20 -20 -46 -20 -57 0 -28 23 -70 50 -95 13 -11 42
-50 66 -86 23 -36 50 -71 58 -78 22 -18 20 -57 -4 -81 -28 -28 -51 -25 -95 10
-21 16 -70 39 -109 51 -58 17 -81 31 -128 75 -44 42 -64 54 -88 54 -57 0 -89
26 -121 98 -22 48 -46 82 -89 122 -44 41 -60 64 -64 90 -3 19 -8 52 -11 74 -5
27 -20 53 -53 88 -42 45 -47 55 -46 93 1 61 21 101 60 124 19 11 39 32 44 46
14 36 13 127 -2 197 -12 57 -11 60 19 116 19 34 35 84 41 124 12 78 22 95 85
143 29 22 62 62 87 105 51 87 74 105 179 136 122 36 133 43 151 94 14 41 19
45 60 52 68 13 251 26 284 22 16 -2 55 -4 88 -4z m997 -456 c67 -45 146 -57
243 -37 35 7 70 12 78 10 8 -1 28 -26 45 -56 40 -73 71 -93 142 -98 98 -7 99
-8 133 -78 32 -67 86 -121 130 -132 36 -8 49 -29 43 -72 -4 -30 3 -53 37 -120
70 -141 45 -167 -118 -116 -64 20 -97 25 -131 21 -141 -19 -133 -20 -180 16
-79 60 -89 63 -193 62 -89 0 -101 -3 -162 -34 -65 -33 -67 -33 -120 -20 -99
24 -237 -12 -293 -75 -30 -33 -35 -35 -95 -35 -117 0 -184 -35 -220 -117 -21
-48 -51 -73 -87 -73 -34 0 -113 -84 -187 -200 -34 -53 -65 -90 -74 -90 -9 0
-27 11 -39 24 -21 23 -23 31 -17 88 6 52 3 71 -14 110 -20 45 -20 48 -3 90 18
45 24 165 9 205 -7 18 -2 25 32 47 47 29 61 63 69 161 6 77 18 95 65 95 65 0
118 58 133 145 17 91 42 109 158 119 55 4 76 11 110 36 22 16 48 30 58 30 9 0
34 12 55 27 31 21 56 28 119 33 79 7 129 24 154 54 21 26 63 19 120 -20z
m-2609 -535 c5 -125 5 -123 74 -197 45 -47 49 -70 31 -193 -14 -103 24 -172
131 -234 79 -46 92 -64 104 -141 5 -32 18 -70 28 -84 27 -38 102 -71 179 -78
63 -7 69 -9 89 -42 54 -84 71 -97 170 -130 155 -52 201 -60 364 -67 96 -3 158
-10 162 -17 16 -24 6 -49 -36 -94 -24 -26 -51 -61 -59 -79 -13 -25 -25 -33
-58 -38 -31 -5 -53 -19 -85 -51 -42 -44 -43 -44 -112 -44 -69 0 -71 -1 -123
-45 l-53 -45 -83 0 c-65 0 -93 -5 -124 -21 -47 -24 -77 -20 -154 18 -45 23
-57 25 -140 20 l-90 -5 -47 50 c-73 77 -114 105 -186 129 -37 12 -73 27 -80
34 -8 7 -20 44 -28 81 -13 63 -19 73 -67 119 -29 28 -75 61 -102 75 -70 36
-72 42 -52 162 15 87 21 106 43 124 15 12 25 27 22 34 -2 7 -28 22 -58 35 -71
29 -82 51 -64 118 7 28 16 96 20 150 7 95 8 99 46 141 40 47 61 92 73 165 5
33 21 58 67 109 32 36 66 79 75 96 27 54 44 67 82 64 l36 -3 5 -116z m2710
-529 c28 -11 81 -24 118 -28 l67 -7 -3 -40 c-4 -62 5 -85 32 -85 13 0 26 7 30
15 12 33 51 39 108 17 29 -11 73 -26 98 -32 49 -13 77 -39 199 -184 76 -90
114 -116 169 -116 50 0 59 -22 64 -155 5 -131 19 -177 63 -197 37 -17 38 -37
4 -103 -30 -57 -31 -64 -25 -137 3 -42 13 -95 21 -118 8 -24 15 -51 15 -62 0
-27 -33 -87 -74 -137 -20 -24 -36 -54 -36 -67 0 -18 -9 -29 -34 -40 -33 -16
-56 -54 -100 -166 -15 -39 -86 -98 -116 -98 -25 0 -70 38 -70 60 0 9 7 34 15
53 41 99 -2 220 -96 267 -44 23 -54 46 -40 97 38 136 -46 272 -191 307 -36 8
-44 27 -51 114 -11 132 -76 202 -190 202 -65 0 -83 12 -91 59 -12 76 -46 99
-185 127 -19 3 -68 24 -109 46 -71 37 -79 39 -156 37 -51 -2 -90 2 -105 10
-19 11 -32 11 -63 2 -33 -10 -44 -10 -64 4 -55 35 -4 125 95 168 31 13 73 36
94 50 21 14 64 31 95 37 31 6 87 24 123 41 50 22 81 29 130 29 48 1 75 7 109
25 55 30 85 31 150 5z m-784 -655 c30 -30 40 -31 54 -5 16 29 50 25 105 -15
54 -38 74 -67 75 -107 0 -32 29 -39 50 -13 16 20 32 19 61 -4 13 -10 54 -28
91 -40 76 -25 83 -31 92 -86 10 -54 48 -110 97 -141 48 -30 64 -64 73 -159 8
-84 28 -128 72 -162 41 -31 43 -55 8 -117 -18 -32 -28 -68 -32 -111 -4 -56 -1
-71 23 -119 34 -66 30 -83 -30 -156 -77 -93 -95 -139 -95 -245 0 -82 -2 -94
-22 -112 -13 -11 -40 -23 -62 -26 -21 -3 -49 -13 -62 -22 -38 -24 -103 -113
-114 -154 -15 -55 -35 -69 -123 -79 -88 -11 -144 -39 -219 -110 l-48 -44 -42
17 c-54 21 -129 13 -195 -21 -30 -17 -54 -23 -67 -19 -12 4 -70 10 -131 14
-88 6 -121 12 -165 33 -30 14 -75 29 -100 33 -60 9 -90 29 -90 60 0 30 -7 29
109 9 116 -20 129 -15 217 78 72 76 88 106 99 183 10 69 16 77 80 109 121 62
191 152 216 279 10 49 18 62 52 89 78 62 129 235 98 330 -15 45 -7 65 30 73
43 10 51 33 43 131 -5 66 -12 94 -30 120 -20 29 -24 48 -24 107 0 98 -14 141
-54 172 -39 30 -51 56 -66 145 -6 36 -14 75 -17 88 -7 29 12 28 43 -3z m-285
-187 c7 -13 16 -70 19 -128 4 -58 13 -119 20 -137 13 -30 12 -36 -23 -103 -41
-81 -43 -93 -22 -143 22 -54 19 -74 -20 -120 -23 -26 -43 -66 -56 -112 -25
-83 -46 -109 -116 -142 -61 -29 -88 -67 -99 -138 -5 -34 -15 -58 -35 -77 -25
-25 -34 -28 -97 -28 -75 0 -78 -1 -181 -87 -78 -64 -143 -84 -260 -81 -53 2
-110 -1 -127 -6 -25 -6 -36 -4 -59 16 -22 19 -29 35 -33 76 -5 52 -18 65 -40
39 -6 -7 -12 -42 -14 -77 -4 -78 -11 -82 -100 -47 -35 14 -81 28 -103 32 -53
8 -76 27 -84 67 -7 31 -9 33 -44 30 -32 -3 -44 2 -88 42 -33 30 -63 47 -87 51
-78 13 -83 16 -110 62 -15 26 -58 80 -95 121 -78 85 -91 110 -77 148 6 15 7
54 4 89 -6 58 -5 64 15 74 24 14 86 5 116 -15 27 -19 54 -18 152 8 l85 22 43
-46 c64 -69 88 -81 189 -94 109 -13 137 -7 188 43 l38 37 83 -17 c75 -14 129
-15 196 -1 13 3 45 27 70 53 44 46 50 48 116 55 39 4 87 12 108 17 49 13 107
65 121 110 9 27 22 39 63 59 28 14 61 34 74 45 27 24 58 91 59 124 0 34 28 61
62 61 42 0 65 16 73 48 7 35 41 92 55 92 5 0 15 -10 21 -22z"/>
</g>
</svg>
